<svg width="1057" height="1011" viewBox="0 0 1057 1011" fill="none" xmlns="http://www.w3.org/2000/svg">
<g style="mix-blend-mode:overlay" opacity="0.75">
<path d="M488.253 302.299L357.595 277.059L243.012 422.96V535.003L324.828 711.686L437.35 737.131L655.182 753.958L849.52 691.575L918.559 521.254L884.555 392.385L750.599 302.299L602.012 271.723L488.253 302.299Z" fill="#0DD5E6" fill-opacity="0.15"/>
</g>
<g style="mix-blend-mode:overlay" opacity="0.75">
<path d="M451.792 635.412L481.337 735.059L624.547 761.726L702.76 721.239L796.562 600.708L773.707 513.551L706.821 356.546L593.123 244.441L449.307 258.154L371.623 328.281L357.092 453.645L389.384 567.642L451.792 635.412Z" fill="#0DD5E6" fill-opacity="0.15"/>
</g>
<g style="mix-blend-mode:overlay" opacity="0.75">
<path d="M653.188 605.032L682.733 704.68L825.943 731.346L904.156 690.859L997.958 570.328L975.103 483.172L908.217 326.167L794.519 214.062L650.703 227.774L573.019 297.902L558.488 423.266L590.78 537.263L653.188 605.032Z" fill="#0DD5E6" fill-opacity="0.15"/>
</g>
<g style="mix-blend-mode:overlay" opacity="0.75">
<path d="M556.869 830.969L587.901 929.846L722.511 960.964L794.12 923.896L877.509 808.755L853.154 722.375L785.277 565.883L675.256 451.875L541.478 460.391L471.39 526.587L462.168 649.202L496.263 762.266L556.869 830.969Z" fill="#0DD5E6" fill-opacity="0.15"/>
</g>
<g style="mix-blend-mode:overlay" opacity="0.75">
<path d="M379.305 727.371L408.85 827.018L552.06 853.685L630.272 813.198L724.074 692.667L701.219 605.51L634.334 448.505L520.636 336.4L376.82 350.113L299.136 420.24L284.605 545.604L316.897 659.601L379.305 727.371Z" fill="#0DD5E6" fill-opacity="0.15"/>
</g>
<g style="mix-blend-mode:overlay" opacity="0.75">
<path d="M379.305 678.107L408.85 777.754L552.06 804.421L630.272 763.934L724.074 643.402L701.219 556.246L634.334 399.241L520.636 287.136L376.82 300.849L299.136 370.976L284.605 496.34L316.897 610.337L379.305 678.107Z" fill="#0DD5E6" fill-opacity="0.15"/>
</g>
<g style="mix-blend-mode:overlay" opacity="0.75">
<path d="M519.748 678.107L549.293 777.754L692.502 804.421L770.715 763.934L864.517 643.402L841.662 556.246L774.777 399.241L661.079 287.136L517.263 300.849L439.579 370.976L425.048 496.34L457.34 610.337L519.748 678.107Z" fill="#0DD5E6" fill-opacity="0.15"/>
</g>
<g style="mix-blend-mode:overlay" opacity="0.75">
<path d="M275.93 774.992L305.475 874.639L448.685 901.306L526.897 860.819L620.699 740.288L597.844 653.132L530.959 496.126L417.261 384.021L273.445 397.734L195.761 467.861L181.23 593.225L213.522 707.223L275.93 774.992Z" fill="#0DD5E6" fill-opacity="0.15"/>
</g>
<g style="mix-blend-mode:overlay" opacity="0.75">
<path d="M559.698 747.486L589.243 847.133L732.453 873.8L810.666 833.313L904.468 712.782L881.613 625.626L814.727 468.62L701.029 356.515L557.214 370.228L479.529 440.355L464.998 565.719L497.291 679.717L559.698 747.486Z" fill="#0DD5E6" fill-opacity="0.15"/>
</g>
<g style="mix-blend-mode:overlay" opacity="0.75">
<path d="M239.275 747.486L268.819 847.133L412.029 873.8L490.242 833.313L584.044 712.782L561.189 625.626L494.304 468.62L380.606 356.515L236.79 370.228L159.105 440.355L144.574 565.719L176.867 679.717L239.275 747.486Z" fill="#0DD5E6" fill-opacity="0.15"/>
</g>
<g style="mix-blend-mode:overlay" opacity="0.75">
<path d="M451.792 635.412L481.337 735.059L624.547 761.726L702.76 721.239L796.562 600.708L773.707 513.551L706.821 356.546L593.123 244.441L449.307 258.154L371.623 328.281L357.092 453.645L389.384 567.642L451.792 635.412Z" fill="#0DD5E6" fill-opacity="0.15"/>
</g>
<g style="mix-blend-mode:overlay" opacity="0.75">
<path d="M451.792 747.486L481.337 847.133L624.547 873.8L702.76 833.313L796.562 712.782L773.707 625.626L706.821 468.62L593.123 356.515L449.307 370.228L371.623 440.355L357.092 565.719L389.384 679.717L451.792 747.486Z" fill="#0DD5E6" fill-opacity="0.15"/>
</g>
<g style="mix-blend-mode:overlay" opacity="0.75">
<path d="M420.491 653.475L450.036 753.122L593.246 779.789L671.459 739.302L765.261 618.771L742.406 531.615L675.52 374.61L561.822 262.504L418.007 276.217L340.322 346.345L325.791 471.708L358.084 585.706L420.491 653.475Z" fill="#0DD5E6" fill-opacity="0.15"/>
</g>
<g style="mix-blend-mode:overlay" opacity="0.75">
<path d="M483.093 635.412L512.638 735.059L655.848 761.726L734.061 721.239L827.863 600.708L805.008 513.551L738.122 356.546L624.424 244.441L480.609 258.154L402.924 328.281L388.393 453.645L420.686 567.642L483.093 635.412Z" fill="#0DD5E6" fill-opacity="0.15"/>
</g>
<g style="mix-blend-mode:overlay" opacity="0.75">
<path d="M594.294 782.381L623.838 882.029L767.048 908.696L845.261 868.208L939.063 747.677L916.208 660.521L849.323 503.516L735.625 391.411L591.809 405.124L514.124 475.251L499.594 600.615L531.886 714.612L594.294 782.381Z" fill="#0DD5E6" fill-opacity="0.15"/>
</g>
<g style="mix-blend-mode:overlay" opacity="0.75">
<path d="M576.585 687.959L606.129 787.606L749.339 814.273L827.552 773.786L921.354 653.255L898.499 566.099L831.614 409.093L717.916 296.988L574.1 310.701L496.415 380.829L481.885 506.192L514.177 620.19L576.585 687.959Z" fill="#0DD5E6" fill-opacity="0.15"/>
</g>
<g style="mix-blend-mode:overlay" opacity="0.75">
<path d="M378.893 810.298L408.438 909.945L551.648 936.612L629.861 896.124L723.663 775.593L700.808 688.437L633.922 531.432L520.224 419.327L376.408 433.04L298.724 503.167L284.193 628.531L316.486 742.528L378.893 810.298Z" fill="#0DD5E6" fill-opacity="0.15"/>
</g>
<g style="mix-blend-mode:overlay" opacity="0.75">
<path d="M275.93 559.053L305.475 658.7L448.685 685.367L526.897 644.88L620.699 524.349L597.844 437.193L530.959 280.187L417.261 168.082L273.445 181.795L195.761 251.922L181.23 377.286L213.522 491.284L275.93 559.053Z" fill="#0DD5E6" fill-opacity="0.15"/>
</g>
<g style="mix-blend-mode:overlay" opacity="0.75">
<path d="M519.748 628.022L549.293 727.669L692.502 754.336L770.715 713.849L864.517 593.317L841.662 506.161L774.777 349.156L661.079 237.051L517.263 250.764L439.579 320.891L425.048 446.255L457.34 560.252L519.748 628.022Z" fill="#0DD5E6" fill-opacity="0.15"/>
</g>
<g style="mix-blend-mode:overlay" opacity="0.75">
<path d="M436.966 752.002L466.51 851.649L609.72 878.316L687.933 837.829L781.735 717.298L758.88 630.142L691.995 473.136L578.296 361.031L434.481 374.744L356.796 444.871L342.265 570.235L374.558 684.233L436.966 752.002Z" fill="#0DD5E6" fill-opacity="0.15"/>
</g>
<g style="mix-blend-mode:overlay" opacity="0.75">
<path d="M390.838 635.412L420.383 735.059L563.593 761.726L641.805 721.239L735.607 600.708L712.752 513.551L645.867 356.546L532.169 244.441L388.353 258.154L310.669 328.281L296.138 453.645L328.43 567.642L390.838 635.412Z" fill="#0DD5E6" fill-opacity="0.15"/>
</g>
<g style="mix-blend-mode:overlay" opacity="0.75">
<path d="M207.973 608.317L237.518 707.964L380.728 734.631L458.941 694.144L552.743 573.612L529.888 486.456L463.002 329.451L349.304 217.346L205.489 231.059L127.804 301.186L113.273 426.55L145.566 540.547L207.973 608.317Z" fill="#0DD5E6" fill-opacity="0.15"/>
</g>
<g style="mix-blend-mode:overlay" opacity="0.75">
<path d="M223.212 600.516L252.757 700.163L395.967 726.83L474.18 686.343L567.982 565.812L545.126 478.656L478.241 321.651L364.543 209.545L220.727 223.258L143.043 293.386L128.512 418.749L160.804 532.747L223.212 600.516Z" fill="#0DD5E6" fill-opacity="0.15"/>
</g>
<g style="mix-blend-mode:overlay" opacity="0.75">
<path d="M332.766 733.118L362.311 832.765L505.521 859.432L583.733 818.945L677.535 698.414L654.68 611.258L587.795 454.252L474.097 342.147L330.281 355.86L252.597 425.987L238.066 551.351L270.358 665.349L332.766 733.118Z" fill="#0DD5E6" fill-opacity="0.15"/>
</g>
<g style="mix-blend-mode:overlay" opacity="0.75">
<path d="M304.347 653.475L333.892 753.122L477.102 779.789L555.315 739.302L649.117 618.771L626.262 531.615L559.376 374.61L445.678 262.504L301.863 276.217L224.178 346.345L209.647 471.708L241.94 585.706L304.347 653.475Z" fill="#0DD5E6" fill-opacity="0.15"/>
</g>
<g style="mix-blend-mode:overlay" opacity="0.75">
<path d="M332.766 461.346L362.311 560.993L505.521 587.66L583.733 547.173L677.535 426.642L654.68 339.486L587.795 182.481L474.097 70.3755L330.281 84.0885L252.597 154.216L238.066 279.58L270.358 393.577L332.766 461.346Z" fill="#0DD5E6" fill-opacity="0.15"/>
</g>
<g style="mix-blend-mode:overlay" opacity="0.75">
<path d="M451.792 461.346L481.337 560.993L624.547 587.66L702.76 547.173L796.562 426.642L773.707 339.486L706.821 182.481L593.123 70.3755L449.307 84.0885L371.623 154.216L357.092 279.58L389.384 393.577L451.792 461.346Z" fill="#0DD5E6" fill-opacity="0.15"/>
</g>
<g style="mix-blend-mode:overlay" opacity="0.75">
<path d="M332.766 540.989L362.311 640.637L505.521 667.303L583.733 626.816L677.535 506.285L654.68 419.129L587.795 262.124L474.097 150.019L330.281 163.732L252.597 233.859L238.066 359.223L270.358 473.22L332.766 540.989Z" fill="#0DD5E6" fill-opacity="0.15"/>
</g>
<g style="mix-blend-mode:overlay" opacity="0.75">
<path d="M176.673 577.937L206.217 677.584L349.427 704.251L427.64 663.764L521.442 543.233L498.587 456.077L431.702 299.071L318.004 186.966L174.188 200.679L96.5034 270.807L81.9724 396.17L114.265 510.168L176.673 577.937Z" fill="#0DD5E6" fill-opacity="0.15"/>
</g>
<g style="mix-blend-mode:overlay" opacity="0.75">
<path d="M447.551 556.254L482.118 653.302L596.301 694.995L652.223 666.046L710.874 563.711L682.956 479.176L612.723 323.903L511.436 205.374L401.506 201.546L349.46 258.401L352.851 374.487L391.227 485.336L447.551 556.254Z" fill="#0DD5E6" fill-opacity="0.15"/>
</g>
<g style="mix-blend-mode:overlay" opacity="0.75">
<path d="M516.283 514.337L545.584 614.11L690.203 640.048L769.499 599L865.008 477.585L842.399 390.302L775.676 233.212L661.375 121.419L515.914 135.984L436.984 206.756L421.583 332.57L453.58 446.721L516.283 514.337Z" fill="#0DD5E6" fill-opacity="0.15"/>
</g>
</svg>
