<svg viewBox="0 0 1146 1080" fill="aqua" xmlns="http://www.w3.org/2000/svg">
<g opacity="0.75">
<g style="mix-blend-mode:overlay" opacity="0.75">
<path d="M-488.219 40.1194L-863.607 -19.9233L-1192.81 327.153V593.683L-957.751 1013.98L-634.466 1074.51L-8.62109 1114.54L549.725 966.143L748.077 560.977L650.381 254.418L265.519 40.1194L-161.382 -32.6152L-488.219 40.1194Z" fill="#B0B0B0" fill-opacity="0.15"/>
</g>
<g style="mix-blend-mode:overlay" opacity="0.75">
<path d="M-592.973 832.538L-508.089 1069.58L-96.6378 1133.02L128.072 1036.71L397.571 749.982L331.907 542.653L139.741 169.163L-186.92 -97.5165L-600.112 -64.8957L-823.304 101.925L-865.052 400.145L-772.274 671.326L-592.973 832.538Z" fill="#B0B0B0" fill-opacity="0.15"/>
</g>
<g style="mix-blend-mode:overlay" opacity="0.75">
<path d="M-14.3484 760.271L70.5355 997.315L481.987 1060.75L706.697 964.439L976.196 677.715L910.532 470.386L718.366 96.8957L391.704 -169.784L-21.4876 -137.163L-244.68 29.6583L-286.428 327.878L-193.65 599.059L-14.3484 760.271Z" fill="#B0B0B0" fill-opacity="0.15"/>
</g>
<g style="mix-blend-mode:overlay" opacity="0.75">
<path d="M-291.081 1297.74L-201.923 1532.95L184.821 1606.97L390.558 1518.79L630.138 1244.89L560.165 1039.41L365.15 667.142L49.0521 395.935L-335.298 416.194L-536.667 573.661L-563.161 865.343L-465.205 1134.3L-291.081 1297.74Z" fill="#B0B0B0" fill-opacity="0.15"/>
</g>
<g style="mix-blend-mode:overlay" opacity="0.75">
<path d="M-801.233 1051.29L-716.349 1288.34L-304.898 1351.77L-80.1876 1255.46L189.312 968.737L123.648 761.407L-68.5184 387.918L-395.18 121.238L-808.372 153.859L-1031.56 320.68L-1073.31 618.9L-980.534 890.081L-801.233 1051.29Z" fill="#B0B0B0" fill-opacity="0.15"/>
</g>
<g style="mix-blend-mode:overlay" opacity="0.75">
<path d="M-801.233 934.103L-716.349 1171.15L-304.898 1234.58L-80.1876 1138.27L189.312 851.547L123.648 644.218L-68.5184 270.728L-395.18 4.04845L-808.372 36.6692L-1031.56 203.49L-1073.31 501.71L-980.534 772.891L-801.233 934.103Z" fill="#B0B0B0" fill-opacity="0.15"/>
</g>
<g style="mix-blend-mode:overlay" opacity="0.75">
<path d="M-397.732 934.103L-312.848 1171.15L98.6034 1234.58L323.313 1138.27L592.813 851.547L527.148 644.218L334.983 270.728L8.32105 4.04845L-404.871 36.6692L-628.063 203.49L-669.811 501.71L-577.033 772.891L-397.732 934.103Z" fill="#B0B0B0" fill-opacity="0.15"/>
</g>
<g style="mix-blend-mode:overlay" opacity="0.75">
<path d="M-1098.24 1164.58L-1013.35 1401.62L-601.901 1465.06L-377.191 1368.74L-107.692 1082.02L-173.356 874.691L-365.522 501.201L-692.184 234.522L-1105.38 267.142L-1328.57 433.963L-1370.32 732.183L-1277.54 1003.36L-1098.24 1164.58Z" fill="#B0B0B0" fill-opacity="0.15"/>
</g>
<g style="mix-blend-mode:overlay" opacity="0.75">
<path d="M-282.951 1099.14L-198.068 1336.19L213.384 1399.62L438.094 1303.31L707.593 1016.59L641.929 809.259L449.763 435.769L123.101 169.09L-290.091 201.711L-513.283 368.532L-555.031 666.751L-462.253 937.932L-282.951 1099.14Z" fill="#B0B0B0" fill-opacity="0.15"/>
</g>
<g style="mix-blend-mode:overlay" opacity="0.75">
<path d="M-592.973 832.538L-508.089 1069.58L-96.6378 1133.02L128.072 1036.71L397.571 749.982L331.907 542.653L139.741 169.163L-186.92 -97.5165L-600.112 -64.8957L-823.304 101.925L-865.052 400.145L-772.274 671.326L-592.973 832.538Z" fill="#B0B0B0" fill-opacity="0.15"/>
</g>
<g style="mix-blend-mode:overlay" opacity="0.75">
<path d="M-592.973 1099.14L-508.089 1336.19L-96.6378 1399.62L128.072 1303.31L397.571 1016.59L331.907 809.259L139.741 435.769L-186.92 169.09L-600.112 201.711L-823.304 368.532L-865.052 666.751L-772.274 937.932L-592.973 1099.14Z" fill="#B0B0B0" fill-opacity="0.15"/>
</g>
<g style="mix-blend-mode:overlay" opacity="0.75">
<path d="M-682.901 875.508L-598.017 1112.55L-186.565 1175.99L38.1445 1079.68L307.644 792.952L241.98 585.622L49.8136 212.133L-276.848 -54.5468L-690.04 -21.926L-913.232 144.895L-954.98 443.115L-862.202 714.296L-682.901 875.508Z" fill="#B0B0B0" fill-opacity="0.15"/>
</g>
<g style="mix-blend-mode:overlay" opacity="0.75">
<path d="M-503.043 832.538L-418.159 1069.58L-6.70759 1133.02L218.002 1036.71L487.502 749.982L421.837 542.653L229.672 169.163L-96.99 -97.5165L-510.182 -64.8957L-733.374 101.925L-775.122 400.145L-682.344 671.326L-503.043 832.538Z" fill="#B0B0B0" fill-opacity="0.15"/>
</g>
<g style="mix-blend-mode:overlay" opacity="0.75">
<path d="M-183.557 1182.16L-98.673 1419.2L312.778 1482.64L537.488 1386.32L806.987 1099.6L741.323 892.27L549.157 518.78L222.496 252.101L-190.696 284.721L-413.888 451.543L-455.636 749.762L-362.858 1020.94L-183.557 1182.16Z" fill="#B0B0B0" fill-opacity="0.15"/>
</g>
<g style="mix-blend-mode:overlay" opacity="0.75">
<path d="M-234.436 957.541L-149.552 1194.58L261.899 1258.02L486.609 1161.71L756.108 874.985L690.444 667.656L498.278 294.166L171.616 27.4864L-241.576 60.1072L-464.768 226.928L-506.516 525.148L-413.738 796.329L-234.436 957.541Z" fill="#B0B0B0" fill-opacity="0.15"/>
</g>
<g style="mix-blend-mode:overlay" opacity="0.75">
<path d="M-802.416 1248.56L-717.532 1485.61L-306.081 1549.04L-81.3707 1452.73L188.128 1166.01L122.464 958.677L-69.7015 585.187L-396.363 318.508L-809.555 351.129L-1032.75 517.95L-1074.5 816.169L-981.717 1087.35L-802.416 1248.56Z" fill="#B0B0B0" fill-opacity="0.15"/>
</g>
<g style="mix-blend-mode:overlay" opacity="0.75">
<path d="M-1098.24 650.893L-1013.35 887.937L-601.901 951.373L-377.191 855.061L-107.692 568.338L-173.356 361.008L-365.522 -12.4817L-692.184 -279.161L-1105.38 -246.54L-1328.57 -79.7192L-1370.32 218.5L-1277.54 489.681L-1098.24 650.893Z" fill="#B0B0B0" fill-opacity="0.15"/>
</g>
<g style="mix-blend-mode:overlay" opacity="0.75">
<path d="M-397.732 814.959L-312.848 1052L98.6034 1115.44L323.313 1019.13L592.813 732.404L527.148 525.074L334.983 151.584L8.32105 -115.095L-404.871 -82.4743L-628.063 84.3468L-669.811 382.566L-577.033 653.747L-397.732 814.959Z" fill="#B0B0B0" fill-opacity="0.15"/>
</g>
<g style="mix-blend-mode:overlay" opacity="0.75">
<path d="M-635.57 1109.89L-550.686 1346.93L-139.235 1410.37L85.475 1314.06L354.974 1027.33L289.31 820.002L97.1442 446.512L-229.517 179.833L-642.709 212.454L-865.901 379.275L-907.65 677.495L-814.872 948.676L-635.57 1109.89Z" fill="#B0B0B0" fill-opacity="0.15"/>
</g>
<g style="mix-blend-mode:overlay" opacity="0.75">
<path d="M-768.097 832.538L-683.214 1069.58L-271.762 1133.02L-47.0523 1036.71L222.447 749.982L156.783 542.653L-35.3832 169.163L-362.045 -97.5165L-775.237 -64.8957L-998.429 101.925L-1040.18 400.145L-947.399 671.326L-768.097 832.538Z" fill="#B0B0B0" fill-opacity="0.15"/>
</g>
<g style="mix-blend-mode:overlay" opacity="0.75">
<path d="M-934.944 1064.96L-850.06 1302.01L-438.608 1365.44L-213.899 1269.13L55.6007 982.409L-10.0634 775.079L-202.229 401.59L-528.891 134.91L-942.083 167.531L-1165.27 334.352L-1207.02 632.572L-1114.25 903.753L-934.944 1064.96Z" fill="#B0B0B0" fill-opacity="0.15"/>
</g>
<g style="mix-blend-mode:overlay" opacity="0.75">
<path d="M-1016.59 875.508L-931.706 1112.55L-520.255 1175.99L-295.545 1079.68L-26.0458 792.952L-91.7099 585.622L-283.876 212.133L-610.537 -54.5468L-1023.73 -21.926L-1246.92 144.895L-1288.67 443.115L-1195.89 714.296L-1016.59 875.508Z" fill="#B0B0B0" fill-opacity="0.15"/>
</g>
<g style="mix-blend-mode:overlay" opacity="0.75">
<path d="M-934.944 418.466L-850.06 655.51L-438.608 718.946L-213.899 622.634L55.6007 335.911L-10.0634 128.581L-202.229 -244.909L-528.891 -511.588L-942.083 -478.968L-1165.27 -312.146L-1207.02 -13.9268L-1114.25 257.254L-934.944 418.466Z" fill="#B0B0B0" fill-opacity="0.15"/>
</g>
<g style="mix-blend-mode:overlay" opacity="0.75">
<path d="M-592.973 418.466L-508.089 655.51L-96.6378 718.946L128.072 622.634L397.571 335.911L331.907 128.581L139.741 -244.909L-186.92 -511.588L-600.112 -478.968L-823.304 -312.146L-865.052 -13.9268L-772.274 257.254L-592.973 418.466Z" fill="#B0B0B0" fill-opacity="0.15"/>
</g>
<g style="mix-blend-mode:overlay" opacity="0.75">
<path d="M-934.944 607.924L-850.06 844.968L-438.608 908.404L-213.899 812.092L55.6007 525.368L-10.0634 318.038L-202.229 -55.4515L-528.891 -322.131L-942.083 -289.51L-1165.27 -122.689L-1207.02 175.531L-1114.25 446.712L-934.944 607.924Z" fill="#B0B0B0" fill-opacity="0.15"/>
</g>
<g style="mix-blend-mode:overlay" opacity="0.75">
<path d="M-605.156 644.236L-505.845 875.096L-177.79 974.277L-17.1229 905.414L151.385 661.976L71.1769 460.88L-130.607 91.5123L-421.611 -190.45L-737.449 -199.556L-886.98 -64.3065L-877.235 211.843L-766.98 475.534L-605.156 644.236Z" fill="#B0B0B0" fill-opacity="0.15"/>
</g>
<g style="mix-blend-mode:overlay" opacity="0.75">
<path d="M-407.686 544.522L-323.502 781.866L91.999 843.566L319.819 745.921L594.223 457.095L529.265 249.463L337.567 -124.227L9.17332 -390.164L-408.747 -355.517L-635.516 -187.163L-679.765 112.129L-587.836 383.674L-407.686 544.522Z" fill="#B0B0B0" fill-opacity="0.15"/>
</g>
</g>
</svg>
