<svg width="1106" height="1080" viewBox="0 0 1106 1080" fill="none" xmlns="http://www.w3.org/2000/svg">
<g style="mix-blend-mode:overlay" opacity="0.75">
<path d="M1402.78 137.119L1027.39 77.0767L698.188 424.153V690.683L933.25 1110.98L1256.53 1171.51L1882.38 1211.54L2440.73 1063.14L2639.08 657.977L2541.38 351.418L2156.52 137.119L1729.62 64.3848L1402.78 137.119Z" fill="#AFB4B5" fill-opacity="0.15"/>
</g>
<g style="mix-blend-mode:overlay" opacity="0.75">
<path d="M1298.03 929.538L1382.91 1166.58L1794.36 1230.02L2019.07 1133.71L2288.57 846.983L2222.91 639.653L2030.74 266.163L1704.08 -0.516369L1290.89 32.1044L1067.7 198.926L1025.95 497.145L1118.73 768.326L1298.03 929.538Z" fill="#AFB4B5" fill-opacity="0.15"/>
</g>
<g style="mix-blend-mode:overlay" opacity="0.75">
<path d="M1599.92 1394.74L1689.08 1629.95L2075.82 1703.97L2281.56 1615.79L2521.14 1341.89L2451.17 1136.41L2256.15 764.142L1940.05 492.935L1555.7 513.194L1354.33 670.662L1327.84 962.343L1425.8 1231.3L1599.92 1394.74Z" fill="#AFB4B5" fill-opacity="0.15"/>
</g>
<g style="mix-blend-mode:overlay" opacity="0.75">
<path d="M1089.77 1148.29L1174.65 1385.34L1586.1 1448.77L1810.81 1352.46L2080.31 1065.74L2014.65 858.407L1822.48 484.917L1495.82 218.238L1082.63 250.859L859.436 417.68L817.688 715.9L910.466 987.081L1089.77 1148.29Z" fill="#AFB4B5" fill-opacity="0.15"/>
</g>
<g style="mix-blend-mode:overlay" opacity="0.75">
<path d="M1089.77 1031.1L1174.65 1268.15L1586.1 1331.58L1810.81 1235.27L2080.31 948.547L2014.65 741.218L1822.48 367.728L1495.82 101.048L1082.63 133.669L859.436 300.49L817.688 598.71L910.466 869.891L1089.77 1031.1Z" fill="#AFB4B5" fill-opacity="0.15"/>
</g>
<g style="mix-blend-mode:overlay" opacity="0.75">
<path d="M1493.27 1031.1L1578.15 1268.15L1989.6 1331.58L2214.31 1235.27L2483.81 948.547L2418.15 741.218L2225.98 367.728L1899.32 101.048L1486.13 133.669L1262.94 300.49L1221.19 598.71L1313.97 869.891L1493.27 1031.1Z" fill="#AFB4B5" fill-opacity="0.15"/>
</g>
<g style="mix-blend-mode:overlay" opacity="0.75">
<path d="M792.763 1261.58L877.647 1498.62L1289.1 1562.06L1513.81 1465.74L1783.31 1179.02L1717.64 971.691L1525.48 598.201L1198.82 331.522L785.624 364.143L562.432 530.964L520.684 829.183L613.462 1100.36L792.763 1261.58Z" fill="#AFB4B5" fill-opacity="0.15"/>
</g>
<g style="mix-blend-mode:overlay" opacity="0.75">
<path d="M1608.05 1196.14L1692.93 1433.19L2104.38 1496.62L2329.09 1400.31L2598.59 1113.59L2532.93 906.259L2340.76 532.769L2014.1 266.09L1600.91 298.711L1377.72 465.532L1335.97 763.752L1428.75 1034.93L1608.05 1196.14Z" fill="#AFB4B5" fill-opacity="0.15"/>
</g>
<g style="mix-blend-mode:overlay" opacity="0.75">
<path d="M687.452 1196.14L772.335 1433.19L1183.79 1496.62L1408.5 1400.31L1678 1113.59L1612.33 906.259L1420.17 532.769L1093.5 266.09L680.312 298.711L457.12 465.532L415.372 763.752L508.15 1034.93L687.452 1196.14Z" fill="#AFB4B5" fill-opacity="0.15"/>
</g>
<g style="mix-blend-mode:overlay" opacity="0.75">
<path d="M1298.03 929.538L1382.91 1166.58L1794.36 1230.02L2019.07 1133.71L2288.57 846.983L2222.91 639.653L2030.74 266.163L1704.08 -0.516369L1290.89 32.1044L1067.7 198.926L1025.95 497.145L1118.73 768.326L1298.03 929.538Z" fill="#AFB4B5" fill-opacity="0.15"/>
</g>
<g style="mix-blend-mode:overlay" opacity="0.75">
<path d="M1298.03 1196.14L1382.91 1433.19L1794.36 1496.62L2019.07 1400.31L2288.57 1113.59L2222.91 906.259L2030.74 532.769L1704.08 266.09L1290.89 298.711L1067.7 465.532L1025.95 763.752L1118.73 1034.93L1298.03 1196.14Z" fill="#AFB4B5" fill-opacity="0.15"/>
</g>
<g style="mix-blend-mode:overlay" opacity="0.75">
<path d="M1208.1 972.507L1292.98 1209.55L1704.43 1272.99L1929.14 1176.68L2198.64 889.952L2132.98 682.622L1940.81 309.132L1614.15 42.453L1200.96 75.0738L977.768 241.895L936.02 540.114L1028.8 811.295L1208.1 972.507Z" fill="#AFB4B5" fill-opacity="0.15"/>
</g>
<g style="mix-blend-mode:overlay" opacity="0.75">
<path d="M1387.96 929.538L1472.84 1166.58L1884.29 1230.02L2109 1133.71L2378.5 846.983L2312.84 639.653L2120.67 266.163L1794.01 -0.516369L1380.82 32.1044L1157.63 198.926L1115.88 497.145L1208.66 768.326L1387.96 929.538Z" fill="#AFB4B5" fill-opacity="0.15"/>
</g>
<g style="mix-blend-mode:overlay" opacity="0.75">
<path d="M1088.58 1345.56L1173.47 1582.61L1584.92 1646.04L1809.63 1549.73L2079.13 1263.01L2013.46 1055.68L1821.3 682.187L1494.64 415.508L1081.44 448.129L858.253 614.95L816.505 913.17L909.283 1184.35L1088.58 1345.56Z" fill="#AFB4B5" fill-opacity="0.15"/>
</g>
<g style="mix-blend-mode:overlay" opacity="0.75">
<path d="M792.763 747.893L877.647 984.937L1289.1 1048.37L1513.81 952.061L1783.31 665.338L1717.64 458.008L1525.48 84.5183L1198.82 -182.161L785.624 -149.54L562.432 17.2808L520.684 315.5L613.462 586.681L792.763 747.893Z" fill="#AFB4B5" fill-opacity="0.15"/>
</g>
<g style="mix-blend-mode:overlay" opacity="0.75">
<path d="M1493.27 911.959L1578.15 1149L1989.6 1212.44L2214.31 1116.13L2483.81 829.404L2418.15 622.074L2225.98 248.584L1899.32 -18.095L1486.13 14.5258L1262.94 181.347L1221.19 479.566L1313.97 750.748L1493.27 911.959Z" fill="#AFB4B5" fill-opacity="0.15"/>
</g>
<g style="mix-blend-mode:overlay" opacity="0.75">
<path d="M1255.43 1206.89L1340.31 1443.93L1751.77 1507.37L1976.48 1411.06L2245.97 1124.33L2180.31 917.002L1988.14 543.513L1661.48 276.833L1248.29 309.454L1025.1 476.275L983.35 774.495L1076.13 1045.68L1255.43 1206.89Z" fill="#AFB4B5" fill-opacity="0.15"/>
</g>
<g style="mix-blend-mode:overlay" opacity="0.75">
<path d="M1122.9 929.538L1207.79 1166.58L1619.24 1230.02L1843.95 1133.71L2113.45 846.983L2047.78 639.653L1855.62 266.163L1528.96 -0.516369L1115.76 32.1044L892.571 198.926L850.823 497.145L943.601 768.326L1122.9 929.538Z" fill="#AFB4B5" fill-opacity="0.15"/>
</g>
<g style="mix-blend-mode:overlay" opacity="0.75">
<path d="M597.521 865.083L682.405 1102.13L1093.86 1165.56L1318.57 1069.25L1588.07 782.528L1522.4 575.198L1330.24 201.708L1003.57 -64.9711L590.382 -32.3503L367.19 134.471L325.442 432.69L418.22 703.871L597.521 865.083Z" fill="#AFB4B5" fill-opacity="0.15"/>
</g>
<g style="mix-blend-mode:overlay" opacity="0.75">
<path d="M641.303 846.529L726.187 1083.57L1137.64 1147.01L1362.35 1050.7L1631.85 763.973L1566.18 556.643L1374.02 183.154L1047.36 -83.5258L634.164 -50.905L410.972 115.916L369.223 414.136L462.002 685.317L641.303 846.529Z" fill="#AFB4B5" fill-opacity="0.15"/>
</g>
<g style="mix-blend-mode:overlay" opacity="0.75">
<path d="M956.057 1161.96L1040.94 1399.01L1452.39 1462.44L1677.1 1366.13L1946.6 1079.41L1880.94 872.079L1688.77 498.589L1362.11 231.91L948.917 264.531L725.725 431.352L683.977 729.571L776.755 1000.75L956.057 1161.96Z" fill="#AFB4B5" fill-opacity="0.15"/>
</g>
<g style="mix-blend-mode:overlay" opacity="0.75">
<path d="M874.41 972.507L959.294 1209.55L1370.75 1272.99L1595.46 1176.68L1864.95 889.952L1799.29 682.622L1607.12 309.132L1280.46 42.453L867.271 75.0738L644.079 241.895L602.331 540.114L695.109 811.295L874.41 972.507Z" fill="#AFB4B5" fill-opacity="0.15"/>
</g>
<g style="mix-blend-mode:overlay" opacity="0.75">
<path d="M956.057 515.466L1040.94 752.51L1452.39 815.946L1677.1 719.634L1946.6 432.911L1880.94 225.581L1688.77 -147.909L1362.11 -414.588L948.917 -381.968L725.725 -215.146L683.977 83.0732L776.755 354.254L956.057 515.466Z" fill="#AFB4B5" fill-opacity="0.15"/>
</g>
<g style="mix-blend-mode:overlay" opacity="0.75">
<path d="M1298.03 515.466L1382.91 752.51L1794.36 815.946L2019.07 719.634L2288.57 432.911L2222.91 225.581L2030.74 -147.909L1704.08 -414.588L1290.89 -381.968L1067.7 -215.146L1025.95 83.0732L1118.73 354.254L1298.03 515.466Z" fill="#AFB4B5" fill-opacity="0.15"/>
</g>
<g style="mix-blend-mode:overlay" opacity="0.75">
<path d="M956.057 704.924L1040.94 941.968L1452.39 1005.4L1677.1 909.092L1946.6 622.368L1880.94 415.038L1688.77 41.5487L1362.11 -225.131L948.917 -192.51L725.725 -25.6888L683.977 272.531L776.755 543.712L956.057 704.924Z" fill="#AFB4B5" fill-opacity="0.15"/>
</g>
<g style="mix-blend-mode:overlay" opacity="0.75">
<path d="M507.592 792.816L592.476 1029.86L1003.93 1093.3L1228.64 996.984L1498.14 710.261L1432.47 502.931L1240.31 129.441L913.645 -137.238L500.453 -104.617L277.261 62.2037L235.513 360.423L328.291 631.604L507.592 792.816Z" fill="#AFB4B5" fill-opacity="0.15"/>
</g>
<g style="mix-blend-mode:overlay" opacity="0.75">
<path d="M1285.84 741.236L1385.16 972.096L1713.21 1071.28L1873.88 1002.41L2042.39 758.976L1962.18 557.88L1760.39 188.512L1469.39 -93.4501L1153.55 -102.556L1004.02 32.6934L1013.76 308.843L1124.02 572.533L1285.84 741.236Z" fill="#AFB4B5" fill-opacity="0.15"/>
</g>
<g style="mix-blend-mode:overlay" opacity="0.75">
<path d="M1483.31 641.522L1567.5 878.866L1983 940.566L2210.82 842.921L2485.22 554.095L2420.27 346.463L2228.57 -27.2272L1900.17 -293.164L1482.25 -258.517L1255.48 -90.1626L1211.24 209.129L1303.16 480.674L1483.31 641.522Z" fill="#AFB4B5" fill-opacity="0.15"/>
</g>
</svg>
