<svg width="601" height="577" viewBox="0 0 601 577" fill="none" xmlns="http://www.w3.org/2000/svg">
<g style="mix-blend-mode:overlay">
<path d="M277.537 172.39L203.267 157.996L138.135 241.198V305.092L184.641 405.847L248.602 420.358L372.424 429.953L482.891 394.379L522.135 297.251L502.806 223.762L426.662 172.39L342.2 154.953L277.537 172.39Z" fill="#0DD5E6" fill-opacity="0.15"/>
</g>
<g style="mix-blend-mode:overlay">
<path d="M256.811 362.351L273.605 419.176L355.01 434.383L399.468 411.294L452.788 342.56L439.796 292.858L401.777 203.324L337.147 139.395L255.398 147.215L211.241 187.206L202.981 258.696L221.337 323.704L256.811 362.351Z" fill="#0DD5E6" fill-opacity="0.15"/>
</g>
<g style="mix-blend-mode:overlay">
<path d="M371.29 345.026L388.084 401.851L469.489 417.059L513.947 393.97L567.267 325.236L554.276 275.534L516.256 186L451.627 122.071L369.878 129.891L325.72 169.882L317.46 241.372L335.816 306.38L371.29 345.026Z" fill="#0DD5E6" fill-opacity="0.15"/>
</g>
<g style="mix-blend-mode:overlay">
<path d="M316.539 473.869L334.179 530.255L410.696 548.001L451.4 526.862L498.8 461.202L484.956 411.943L446.373 322.701L383.834 257.687L307.791 262.543L267.951 300.292L262.709 370.215L282.09 434.691L316.539 473.869Z" fill="#0DD5E6" fill-opacity="0.15"/>
</g>
<g style="mix-blend-mode:overlay">
<path d="M215.608 414.791L232.402 471.616L313.806 486.823L358.264 463.735L411.584 395.001L398.593 345.299L360.573 255.765L295.944 191.836L214.195 199.656L170.037 239.646L161.777 311.137L180.133 376.145L215.608 414.791Z" fill="#0DD5E6" fill-opacity="0.15"/>
</g>
<g style="mix-blend-mode:overlay">
<path d="M215.608 386.698L232.402 443.523L313.806 458.73L358.264 435.642L411.584 366.908L398.593 317.206L360.573 227.672L295.944 163.742L214.195 171.562L170.037 211.553L161.777 283.043L180.133 348.052L215.608 386.698Z" fill="#0DD5E6" fill-opacity="0.15"/>
</g>
<g style="mix-blend-mode:overlay">
<path d="M295.439 386.698L312.233 443.523L393.637 458.73L438.096 435.642L491.415 366.908L478.424 317.206L440.404 227.672L375.775 163.742L294.026 171.562L249.868 211.553L241.609 283.043L259.965 348.052L295.439 386.698Z" fill="#0DD5E6" fill-opacity="0.15"/>
</g>
<g style="mix-blend-mode:overlay">
<path d="M156.846 441.948L173.64 498.773L255.045 513.98L299.503 490.892L352.823 422.157L339.831 372.456L301.812 282.922L237.183 218.992L155.434 226.812L111.276 266.803L103.016 338.293L121.372 403.302L156.846 441.948Z" fill="#0DD5E6" fill-opacity="0.15"/>
</g>
<g style="mix-blend-mode:overlay">
<path d="M318.148 426.262L334.942 483.087L416.346 498.294L460.805 475.206L514.124 406.472L501.133 356.77L463.113 267.236L398.484 203.307L316.735 211.127L272.577 251.118L264.318 322.608L282.674 387.616L318.148 426.262Z" fill="#0DD5E6" fill-opacity="0.15"/>
</g>
<g style="mix-blend-mode:overlay">
<path d="M136.01 426.262L152.804 483.087L234.209 498.294L278.667 475.206L331.987 406.472L318.996 356.77L280.976 267.236L216.347 203.307L134.598 211.127L90.44 251.118L82.1802 322.608L100.536 387.616L136.01 426.262Z" fill="#0DD5E6" fill-opacity="0.15"/>
</g>
<g style="mix-blend-mode:overlay">
<path d="M256.811 362.351L273.605 419.176L355.01 434.383L399.468 411.294L452.788 342.56L439.796 292.858L401.777 203.324L337.147 139.395L255.398 147.215L211.241 187.206L202.981 258.696L221.337 323.704L256.811 362.351Z" fill="#0DD5E6" fill-opacity="0.15"/>
</g>
<g style="mix-blend-mode:overlay">
<path d="M256.811 426.262L273.605 483.087L355.01 498.294L399.468 475.206L452.788 406.472L439.796 356.77L401.777 267.236L337.147 203.307L255.398 211.127L211.241 251.118L202.981 322.608L221.337 387.616L256.811 426.262Z" fill="#0DD5E6" fill-opacity="0.15"/>
</g>
<g style="mix-blend-mode:overlay">
<path d="M239.019 372.651L255.813 429.476L337.218 444.683L381.676 421.595L434.996 352.861L422.004 303.159L383.985 213.625L319.355 149.696L237.606 157.516L193.449 197.507L185.189 268.997L203.545 334.005L239.019 372.651Z" fill="#0DD5E6" fill-opacity="0.15"/>
</g>
<g style="mix-blend-mode:overlay">
<path d="M274.603 362.351L291.397 419.176L372.802 434.383L417.26 411.294L470.58 342.56L457.589 292.858L419.569 203.324L354.94 139.395L273.191 147.215L229.033 187.206L220.773 258.696L239.129 323.704L274.603 362.351Z" fill="#0DD5E6" fill-opacity="0.15"/>
</g>
<g style="mix-blend-mode:overlay">
<path d="M337.813 446.162L354.607 502.987L436.012 518.194L480.47 495.106L533.79 426.371L520.798 376.67L482.779 287.136L418.149 223.206L336.4 231.026L292.242 271.017L283.983 342.507L302.339 407.516L337.813 446.162Z" fill="#0DD5E6" fill-opacity="0.15"/>
</g>
<g style="mix-blend-mode:overlay">
<path d="M327.746 392.317L344.541 449.141L425.945 464.349L470.403 441.26L523.723 372.526L510.732 322.824L472.712 233.29L408.083 169.361L326.334 177.181L282.176 217.172L273.916 288.662L292.272 353.67L327.746 392.317Z" fill="#0DD5E6" fill-opacity="0.15"/>
</g>
<g style="mix-blend-mode:overlay">
<path d="M215.373 462.081L232.168 518.906L313.572 534.113L358.03 511.025L411.35 442.291L398.359 392.589L360.339 303.055L295.71 239.126L213.961 246.946L169.803 286.937L161.543 358.427L179.899 423.435L215.373 462.081Z" fill="#0DD5E6" fill-opacity="0.15"/>
</g>
<g style="mix-blend-mode:overlay">
<path d="M156.846 318.806L173.64 375.631L255.045 390.838L299.503 367.75L352.823 299.016L339.831 249.314L301.812 159.78L237.183 95.8506L155.434 103.671L111.276 143.661L103.016 215.152L121.372 280.16L156.846 318.806Z" fill="#0DD5E6" fill-opacity="0.15"/>
</g>
<g style="mix-blend-mode:overlay">
<path d="M295.439 358.137L312.233 414.962L393.637 430.169L438.096 407.08L491.415 338.346L478.424 288.644L440.404 199.11L375.775 135.181L294.026 143.001L249.868 182.992L241.609 254.482L259.965 319.49L295.439 358.137Z" fill="#0DD5E6" fill-opacity="0.15"/>
</g>
<g style="mix-blend-mode:overlay">
<path d="M248.383 428.838L265.177 485.663L346.582 500.87L391.04 477.782L444.36 409.047L431.368 359.346L393.349 269.811L328.72 205.882L246.971 213.702L202.813 253.693L194.553 325.183L212.909 390.192L248.383 428.838Z" fill="#0DD5E6" fill-opacity="0.15"/>
</g>
<g style="mix-blend-mode:overlay">
<path d="M222.163 362.351L238.957 419.176L320.362 434.383L364.82 411.294L418.14 342.56L405.148 292.858L367.129 203.324L302.499 139.395L220.751 147.215L176.593 187.206L168.333 258.696L186.689 323.704L222.163 362.351Z" fill="#0DD5E6" fill-opacity="0.15"/>
</g>
<g style="mix-blend-mode:overlay">
<path d="M118.218 346.899L135.012 403.724L216.417 418.931L260.875 395.843L314.195 327.109L301.203 277.407L263.184 187.873L198.554 123.944L116.805 131.764L72.6475 171.755L64.3877 243.245L82.7436 308.253L118.218 346.899Z" fill="#0DD5E6" fill-opacity="0.15"/>
</g>
<g style="mix-blend-mode:overlay">
<path d="M126.88 342.451L143.674 399.276L225.079 414.483L269.537 391.395L322.857 322.661L309.865 272.959L271.846 183.425L207.217 119.496L125.468 127.316L81.3096 167.307L73.0498 238.797L91.4057 303.805L126.88 342.451Z" fill="#0DD5E6" fill-opacity="0.15"/>
</g>
<g style="mix-blend-mode:overlay">
<path d="M189.153 418.069L205.947 474.894L287.352 490.101L331.81 467.012L385.13 398.278L372.138 348.576L334.119 259.042L269.49 195.113L187.741 202.933L143.583 242.924L135.323 314.414L153.679 379.422L189.153 418.069Z" fill="#0DD5E6" fill-opacity="0.15"/>
</g>
<g style="mix-blend-mode:overlay">
<path d="M173 372.651L189.794 429.476L271.198 444.683L315.657 421.595L368.976 352.861L355.985 303.159L317.965 213.625L253.336 149.696L171.587 157.516L127.429 197.507L119.169 268.997L137.525 334.005L173 372.651Z" fill="#0DD5E6" fill-opacity="0.15"/>
</g>
<g style="mix-blend-mode:overlay">
<path d="M189.153 263.088L205.947 319.913L287.352 335.12L331.81 312.032L385.13 243.298L372.138 193.596L334.119 104.062L269.49 40.1325L187.741 47.9524L143.583 87.9433L135.323 159.433L153.679 224.442L189.153 263.088Z" fill="#0DD5E6" fill-opacity="0.15"/>
</g>
<g style="mix-blend-mode:overlay">
<path d="M256.811 263.088L273.605 319.913L355.01 335.12L399.468 312.032L452.788 243.298L439.796 193.596L401.777 104.062L337.147 40.1325L255.398 47.9524L211.241 87.9433L202.981 159.433L221.337 224.442L256.811 263.088Z" fill="#0DD5E6" fill-opacity="0.15"/>
</g>
<g style="mix-blend-mode:overlay">
<path d="M189.153 308.505L205.947 365.33L287.352 380.537L331.81 357.449L385.13 288.715L372.138 239.013L334.119 149.479L269.49 85.5498L187.741 93.3698L143.583 133.361L135.323 204.851L153.679 269.859L189.153 308.505Z" fill="#0DD5E6" fill-opacity="0.15"/>
</g>
<g style="mix-blend-mode:overlay">
<path d="M100.426 329.575L117.22 386.4L198.624 401.607L243.083 378.519L296.402 309.785L283.411 260.083L245.391 170.549L180.762 106.62L99.0132 114.44L54.8553 154.43L46.5955 225.921L64.9514 290.929L100.426 329.575Z" fill="#0DD5E6" fill-opacity="0.15"/>
</g>
<g style="mix-blend-mode:overlay">
<path d="M254.401 317.21L274.049 372.553L338.954 396.329L370.741 379.821L404.08 321.463L388.211 273.255L348.289 184.71L290.714 117.117L228.227 114.934L198.642 147.356L200.57 213.556L222.384 276.768L254.401 317.21Z" fill="#0DD5E6" fill-opacity="0.15"/>
</g>
<g style="mix-blend-mode:overlay">
<path d="M293.47 293.306L310.125 350.203L392.331 364.994L437.405 341.587L491.695 272.348L478.843 222.574L440.916 132.992L375.944 69.2406L293.26 77.5464L248.394 117.905L239.639 189.652L257.827 254.747L293.47 293.306Z" fill="#0DD5E6" fill-opacity="0.15"/>
</g>
</svg>
