<svg width="1671" height="1067" viewBox="0 0 1671 1067" fill="none" xmlns="http://www.w3.org/2000/svg">
<g opacity="0.75">
<g style="mix-blend-mode:overlay" opacity="0.75">
<path d="M771.874 319.044L565.318 292.405L384.174 446.389V564.637L513.516 751.107L691.402 777.962L1035.77 795.721L1343 729.883L1452.14 550.127L1398.38 414.119L1186.61 319.044L951.714 286.774L771.874 319.044Z" fill="#B0B0B0" fill-opacity="0.15"/>
</g>
<g style="mix-blend-mode:overlay" opacity="0.75">
<path d="M714.233 670.607L760.94 775.774L987.339 803.918L1110.98 761.188L1259.28 633.981L1223.14 541.997L1117.41 376.295L937.662 257.98L710.305 272.453L587.495 346.464L564.523 478.772L615.573 599.084L714.233 670.607Z" fill="#B0B0B0" fill-opacity="0.15"/>
</g>
<g style="mix-blend-mode:overlay" opacity="0.75">
<path d="M1032.62 638.545L1079.33 743.712L1305.72 771.856L1429.37 729.126L1577.66 601.919L1541.53 509.935L1435.79 344.233L1256.05 225.918L1028.69 240.391L905.88 314.402L882.908 446.71L933.959 567.022L1032.62 638.545Z" fill="#B0B0B0" fill-opacity="0.15"/>
</g>
<g style="mix-blend-mode:overlay" opacity="0.75">
<path d="M880.348 876.997L929.406 981.351L1142.21 1014.19L1255.42 975.071L1387.24 853.553L1348.74 762.388L1241.44 597.228L1067.5 476.905L856.018 485.893L745.215 555.755L730.637 685.162L784.537 804.489L880.348 876.997Z" fill="#B0B0B0" fill-opacity="0.15"/>
</g>
<g style="mix-blend-mode:overlay" opacity="0.75">
<path d="M599.639 767.66L646.346 872.827L872.745 900.971L996.391 858.241L1144.68 731.034L1108.55 639.05L1002.81 473.348L823.068 355.033L595.711 369.506L472.9 443.517L449.929 575.825L500.979 696.137L599.639 767.66Z" fill="#B0B0B0" fill-opacity="0.15"/>
</g>
<g style="mix-blend-mode:overlay" opacity="0.75">
<path d="M599.639 715.667L646.346 820.834L872.745 848.978L996.391 806.248L1144.68 679.041L1108.55 587.057L1002.81 421.355L823.068 303.04L595.711 317.513L472.9 391.525L449.929 523.832L500.979 644.144L599.639 715.667Z" fill="#B0B0B0" fill-opacity="0.15"/>
</g>
<g style="mix-blend-mode:overlay" opacity="0.75">
<path d="M821.664 715.667L868.371 820.834L1094.77 848.978L1218.42 806.248L1366.71 679.041L1330.57 587.057L1224.84 421.355L1045.09 303.04L817.736 317.513L694.925 391.525L671.953 523.832L723.004 644.144L821.664 715.667Z" fill="#B0B0B0" fill-opacity="0.15"/>
</g>
<g style="mix-blend-mode:overlay" opacity="0.75">
<path d="M436.214 817.919L482.921 923.086L709.32 951.23L832.966 908.5L981.257 781.293L945.125 689.309L839.387 523.607L659.643 405.292L432.286 419.765L309.476 493.776L286.504 626.084L337.554 746.396L436.214 817.919Z" fill="#B0B0B0" fill-opacity="0.15"/>
</g>
<g style="mix-blend-mode:overlay" opacity="0.75">
<path d="M884.821 788.89L931.528 894.057L1157.93 922.201L1281.57 879.471L1429.86 752.264L1393.73 660.28L1287.99 494.578L1108.25 376.263L880.893 390.736L758.082 464.747L735.111 597.055L786.161 717.367L884.821 788.89Z" fill="#B0B0B0" fill-opacity="0.15"/>
</g>
<g style="mix-blend-mode:overlay" opacity="0.75">
<path d="M378.267 788.89L424.974 894.057L651.373 922.201L775.019 879.471L923.309 752.264L887.178 660.28L781.439 494.578L601.696 376.263L374.339 390.736L251.528 464.747L228.557 597.055L279.607 717.367L378.267 788.89Z" fill="#B0B0B0" fill-opacity="0.15"/>
</g>
<g style="mix-blend-mode:overlay" opacity="0.75">
<path d="M714.233 670.607L760.94 775.774L987.339 803.918L1110.98 761.188L1259.28 633.981L1223.14 541.997L1117.41 376.295L937.662 257.98L710.305 272.453L587.495 346.464L564.523 478.772L615.573 599.084L714.233 670.607Z" fill="#B0B0B0" fill-opacity="0.15"/>
</g>
<g style="mix-blend-mode:overlay" opacity="0.75">
<path d="M714.233 788.89L760.94 894.057L987.339 922.201L1110.98 879.471L1259.28 752.264L1223.14 660.28L1117.41 494.578L937.662 376.263L710.305 390.736L587.495 464.747L564.523 597.055L615.573 717.367L714.233 788.89Z" fill="#B0B0B0" fill-opacity="0.15"/>
</g>
<g style="mix-blend-mode:overlay" opacity="0.75">
<path d="M664.751 689.671L711.458 794.838L937.857 822.982L1061.5 780.252L1209.79 653.045L1173.66 561.061L1067.92 395.359L888.179 277.044L660.823 291.517L538.012 365.528L515.04 497.836L566.091 618.148L664.751 689.671Z" fill="#B0B0B0" fill-opacity="0.15"/>
</g>
<g style="mix-blend-mode:overlay" opacity="0.75">
<path d="M763.717 670.607L810.424 775.774L1036.82 803.918L1160.47 761.188L1308.76 633.981L1272.63 541.997L1166.89 376.295L987.145 257.98L759.788 272.453L636.978 346.464L614.006 478.772L665.057 599.084L763.717 670.607Z" fill="#B0B0B0" fill-opacity="0.15"/>
</g>
<g style="mix-blend-mode:overlay" opacity="0.75">
<path d="M939.513 825.718L986.22 930.885L1212.62 959.029L1336.26 916.299L1484.55 789.092L1448.42 697.108L1342.69 531.406L1162.94 413.091L935.584 427.564L812.774 501.575L789.802 633.883L840.853 754.195L939.513 825.718Z" fill="#B0B0B0" fill-opacity="0.15"/>
</g>
<g style="mix-blend-mode:overlay" opacity="0.75">
<path d="M911.516 726.066L958.223 831.232L1184.62 859.376L1308.27 816.647L1456.56 689.439L1420.43 597.456L1314.69 431.753L1134.95 313.439L907.588 327.911L784.778 401.923L761.806 534.231L812.857 654.543L911.516 726.066Z" fill="#B0B0B0" fill-opacity="0.15"/>
</g>
<g style="mix-blend-mode:overlay" opacity="0.75">
<path d="M598.988 855.181L645.695 960.347L872.094 988.491L995.74 945.762L1144.03 818.554L1107.9 726.57L1002.16 560.868L822.417 442.554L595.06 457.026L472.249 531.038L449.278 663.346L500.328 783.657L598.988 855.181Z" fill="#B0B0B0" fill-opacity="0.15"/>
</g>
<g style="mix-blend-mode:overlay" opacity="0.75">
<path d="M436.214 590.019L482.921 695.186L709.32 723.33L832.966 680.6L981.257 553.392L945.125 461.409L839.387 295.707L659.643 177.392L432.286 191.864L309.476 265.876L286.504 398.184L337.554 518.496L436.214 590.019Z" fill="#B0B0B0" fill-opacity="0.15"/>
</g>
<g style="mix-blend-mode:overlay" opacity="0.75">
<path d="M821.664 662.808L868.371 767.975L1094.77 796.119L1218.42 753.389L1366.71 626.182L1330.57 534.198L1224.84 368.496L1045.09 250.181L817.736 264.654L694.925 338.666L671.953 470.973L723.004 591.285L821.664 662.808Z" fill="#B0B0B0" fill-opacity="0.15"/>
</g>
<g style="mix-blend-mode:overlay" opacity="0.75">
<path d="M690.794 793.656L737.501 898.823L963.9 926.967L1087.55 884.237L1235.84 757.03L1199.71 665.046L1093.97 499.344L914.223 381.029L686.866 395.502L564.056 469.513L541.084 601.821L592.135 722.133L690.794 793.656Z" fill="#B0B0B0" fill-opacity="0.15"/>
</g>
<g style="mix-blend-mode:overlay" opacity="0.75">
<path d="M617.872 670.607L664.579 775.774L890.978 803.918L1014.62 761.188L1162.91 633.981L1126.78 541.997L1021.04 376.295L841.301 257.98L613.944 272.453L491.133 346.464L468.161 478.772L519.212 599.084L617.872 670.607Z" fill="#B0B0B0" fill-opacity="0.15"/>
</g>
<g style="mix-blend-mode:overlay" opacity="0.75">
<path d="M328.783 642.012L375.49 747.178L601.889 775.322L725.535 732.593L873.825 605.385L837.694 513.401L731.956 347.699L552.212 229.385L324.855 243.857L202.044 317.869L179.073 450.177L230.123 570.488L328.783 642.012Z" fill="#B0B0B0" fill-opacity="0.15"/>
</g>
<g style="mix-blend-mode:overlay" opacity="0.75">
<path d="M352.874 633.78L399.581 738.946L625.98 767.09L749.626 724.361L897.916 597.153L861.785 505.169L756.046 339.467L576.302 221.153L348.946 235.625L226.135 309.637L203.163 441.945L254.214 562.257L352.874 633.78Z" fill="#B0B0B0" fill-opacity="0.15"/>
</g>
<g style="mix-blend-mode:overlay" opacity="0.75">
<path d="M526.065 773.725L572.772 878.892L799.171 907.036L922.817 864.306L1071.11 737.099L1034.98 645.115L929.238 479.413L749.494 361.098L522.137 375.571L399.327 449.583L376.355 581.89L427.406 702.202L526.065 773.725Z" fill="#B0B0B0" fill-opacity="0.15"/>
</g>
<g style="mix-blend-mode:overlay" opacity="0.75">
<path d="M481.14 689.671L527.847 794.838L754.246 822.982L877.892 780.252L1026.18 653.045L990.051 561.061L884.313 395.359L704.569 277.044L477.212 291.517L354.401 365.528L331.43 497.836L382.48 618.148L481.14 689.671Z" fill="#B0B0B0" fill-opacity="0.15"/>
</g>
<g style="mix-blend-mode:overlay" opacity="0.75">
<path d="M526.065 486.901L572.772 592.067L799.171 620.211L922.817 577.482L1071.11 450.274L1034.98 358.291L929.238 192.588L749.494 74.2737L522.137 88.7463L399.327 162.758L376.355 295.066L427.406 415.378L526.065 486.901Z" fill="#B0B0B0" fill-opacity="0.15"/>
</g>
<g style="mix-blend-mode:overlay" opacity="0.75">
<path d="M714.233 486.901L760.94 592.067L987.339 620.211L1110.98 577.482L1259.28 450.274L1223.14 358.291L1117.41 192.588L937.662 74.2737L710.305 88.7463L587.495 162.758L564.523 295.066L615.573 415.378L714.233 486.901Z" fill="#B0B0B0" fill-opacity="0.15"/>
</g>
<g style="mix-blend-mode:overlay" opacity="0.75">
<path d="M526.065 570.955L572.772 676.122L799.171 704.266L922.817 661.536L1071.11 534.329L1034.98 442.345L929.238 276.643L749.494 158.328L522.137 172.801L399.327 246.813L376.355 379.12L427.406 499.432L526.065 570.955Z" fill="#B0B0B0" fill-opacity="0.15"/>
</g>
<g style="mix-blend-mode:overlay" opacity="0.75">
<path d="M279.3 609.95L326.007 715.116L552.406 743.26L676.052 700.531L824.342 573.323L788.211 481.339L682.473 315.637L502.729 197.323L275.372 211.795L152.561 285.807L129.59 418.115L180.64 538.426L279.3 609.95Z" fill="#B0B0B0" fill-opacity="0.15"/>
</g>
<g style="mix-blend-mode:overlay" opacity="0.75">
<path d="M707.53 587.066L762.175 689.489L942.686 733.491L1031.09 702.94L1123.81 594.936L1079.68 505.718L968.648 341.845L808.524 216.75L634.736 212.71L552.458 272.715L557.819 395.231L618.487 512.219L707.53 587.066Z" fill="#B0B0B0" fill-opacity="0.15"/>
</g>
<g style="mix-blend-mode:overlay" opacity="0.75">
<path d="M816.187 542.826L862.508 648.126L1091.14 675.5L1216.49 632.179L1367.48 504.039L1331.74 411.921L1226.26 246.13L1045.56 128.144L815.603 143.516L690.824 218.208L666.476 350.991L717.06 471.465L816.187 542.826Z" fill="#B0B0B0" fill-opacity="0.15"/>
</g>
</g>
</svg>
