<svg width="1428" height="1015" viewBox="0 0 1428 1015" fill="none" xmlns="http://www.w3.org/2000/svg">
<g opacity="0.75">
<g style="mix-blend-mode:overlay" opacity="0.75">
<path d="M659.628 303.498L483.11 278.157L328.309 424.636V537.122L438.841 714.504L590.858 740.05L885.148 756.944L1147.7 694.314L1240.97 523.319L1195.03 393.94L1014.06 303.498L813.316 272.801L659.628 303.498Z" fill="#B0B0B0" fill-opacity="0.15"/>
</g>
<g style="mix-blend-mode:overlay" opacity="0.75">
<path d="M610.368 637.926L650.283 737.967L843.759 764.74L949.423 724.092L1076.15 603.084L1045.27 515.583L954.911 357.957L801.305 245.408L607.011 259.175L502.06 329.58L482.429 455.44L526.056 569.888L610.368 637.926Z" fill="#B0B0B0" fill-opacity="0.15"/>
</g>
<g style="mix-blend-mode:overlay" opacity="0.75">
<path d="M882.453 607.426L922.368 707.468L1115.84 734.24L1221.51 693.593L1348.23 572.585L1317.36 485.084L1227 327.457L1073.39 214.909L879.096 228.676L774.145 299.08L754.514 424.94L798.141 539.389L882.453 607.426Z" fill="#B0B0B0" fill-opacity="0.15"/>
</g>
<g style="mix-blend-mode:overlay" opacity="0.75">
<path d="M752.326 834.256L794.251 933.525L976.108 964.766L1072.85 927.551L1185.51 811.955L1152.61 725.233L1060.9 568.122L912.266 453.663L731.534 462.213L636.845 528.67L624.387 651.77L670.448 765.282L752.326 834.256Z" fill="#B0B0B0" fill-opacity="0.15"/>
</g>
<g style="mix-blend-mode:overlay" opacity="0.75">
<path d="M512.439 730.249L552.354 830.29L745.829 857.062L851.494 816.415L978.22 695.407L947.343 607.906L856.981 450.279L703.376 337.731L509.082 351.498L404.131 421.903L384.5 547.763L428.126 662.211L512.439 730.249Z" fill="#B0B0B0" fill-opacity="0.15"/>
</g>
<g style="mix-blend-mode:overlay" opacity="0.75">
<path d="M512.439 680.79L552.354 780.831L745.829 807.604L851.494 766.957L978.22 645.949L947.343 558.448L856.981 400.821L703.376 288.272L509.082 302.039L404.131 372.444L384.5 498.304L428.126 612.753L512.439 680.79Z" fill="#B0B0B0" fill-opacity="0.15"/>
</g>
<g style="mix-blend-mode:overlay" opacity="0.75">
<path d="M702.176 680.79L742.09 780.831L935.566 807.604L1041.23 766.957L1167.96 645.949L1137.08 558.448L1046.72 400.821L893.113 288.272L698.819 302.039L593.868 372.444L574.236 498.304L617.863 612.753L702.176 680.79Z" fill="#B0B0B0" fill-opacity="0.15"/>
</g>
<g style="mix-blend-mode:overlay" opacity="0.75">
<path d="M372.779 778.058L412.694 878.099L606.17 904.872L711.834 864.225L838.56 743.217L807.683 655.716L717.322 498.089L563.716 385.54L369.422 399.308L264.471 469.712L244.84 595.572L288.467 710.021L372.779 778.058Z" fill="#B0B0B0" fill-opacity="0.15"/>
</g>
<g style="mix-blend-mode:overlay" opacity="0.75">
<path d="M756.148 750.444L796.063 850.485L989.539 877.258L1095.2 836.61L1221.93 715.602L1191.05 628.101L1100.69 470.475L947.086 357.926L752.791 371.693L647.84 442.098L628.209 567.958L671.836 682.406L756.148 750.444Z" fill="#B0B0B0" fill-opacity="0.15"/>
</g>
<g style="mix-blend-mode:overlay" opacity="0.75">
<path d="M323.259 750.444L363.173 850.485L556.649 877.258L662.314 836.61L789.04 715.602L758.163 628.101L667.801 470.475L514.196 357.926L319.902 371.693L214.951 442.098L195.319 567.958L238.946 682.406L323.259 750.444Z" fill="#B0B0B0" fill-opacity="0.15"/>
</g>
<g style="mix-blend-mode:overlay" opacity="0.75">
<path d="M610.368 637.926L650.283 737.967L843.759 764.74L949.423 724.092L1076.15 603.084L1045.27 515.583L954.911 357.957L801.305 245.408L607.011 259.175L502.06 329.58L482.429 455.44L526.056 569.888L610.368 637.926Z" fill="#B0B0B0" fill-opacity="0.15"/>
</g>
<g style="mix-blend-mode:overlay" opacity="0.75">
<path d="M610.368 750.444L650.283 850.485L843.759 877.258L949.423 836.61L1076.15 715.602L1045.27 628.101L954.911 470.475L801.305 357.926L607.011 371.693L502.06 442.098L482.429 567.958L526.056 682.406L610.368 750.444Z" fill="#B0B0B0" fill-opacity="0.15"/>
</g>
<g style="mix-blend-mode:overlay" opacity="0.75">
<path d="M568.081 656.061L607.996 756.102L801.472 782.874L907.137 742.227L1033.86 621.219L1002.99 533.718L912.624 376.091L759.019 263.543L564.724 277.31L459.773 347.715L440.142 473.575L483.769 588.023L568.081 656.061Z" fill="#B0B0B0" fill-opacity="0.15"/>
</g>
<g style="mix-blend-mode:overlay" opacity="0.75">
<path d="M652.656 637.926L692.57 737.967L886.046 764.74L991.711 724.092L1118.44 603.084L1087.56 515.583L997.198 357.957L843.593 245.408L649.299 259.175L544.348 329.58L524.716 455.44L568.343 569.888L652.656 637.926Z" fill="#B0B0B0" fill-opacity="0.15"/>
</g>
<g style="mix-blend-mode:overlay" opacity="0.75">
<path d="M802.887 785.477L842.801 885.518L1036.28 912.291L1141.94 871.644L1268.67 750.636L1237.79 663.135L1147.43 505.508L993.824 392.959L799.53 406.726L694.579 477.131L674.947 602.991L718.574 717.44L802.887 785.477Z" fill="#B0B0B0" fill-opacity="0.15"/>
</g>
<g style="mix-blend-mode:overlay" opacity="0.75">
<path d="M778.962 690.682L818.877 790.723L1012.35 817.495L1118.02 776.848L1244.74 655.84L1213.87 568.339L1123.5 410.713L969.899 298.164L775.605 311.931L670.654 382.336L651.023 508.196L694.649 622.644L778.962 690.682Z" fill="#B0B0B0" fill-opacity="0.15"/>
</g>
<g style="mix-blend-mode:overlay" opacity="0.75">
<path d="M511.882 813.504L551.797 913.545L745.273 940.318L850.938 899.67L977.663 778.662L946.786 691.161L856.425 533.535L702.819 420.986L508.525 434.753L403.574 505.158L383.943 631.018L427.57 745.466L511.882 813.504Z" fill="#B0B0B0" fill-opacity="0.15"/>
</g>
<g style="mix-blend-mode:overlay" opacity="0.75">
<path d="M372.779 561.265L412.694 661.307L606.17 688.079L711.834 647.432L838.56 526.424L807.683 438.923L717.322 281.296L563.716 168.747L369.422 182.515L264.471 252.919L244.84 378.779L288.467 493.228L372.779 561.265Z" fill="#B0B0B0" fill-opacity="0.15"/>
</g>
<g style="mix-blend-mode:overlay" opacity="0.75">
<path d="M702.176 630.507L742.09 730.548L935.566 757.321L1041.23 716.673L1167.96 595.665L1137.08 508.164L1046.72 350.538L893.113 237.989L698.819 251.756L593.868 322.161L574.236 448.021L617.863 562.469L702.176 630.507Z" fill="#B0B0B0" fill-opacity="0.15"/>
</g>
<g style="mix-blend-mode:overlay" opacity="0.75">
<path d="M590.338 754.978L630.253 855.019L823.728 881.791L929.393 841.144L1056.12 720.136L1025.24 632.635L934.88 475.008L781.275 362.46L586.981 376.227L482.03 446.632L462.399 572.492L506.025 686.94L590.338 754.978Z" fill="#B0B0B0" fill-opacity="0.15"/>
</g>
<g style="mix-blend-mode:overlay" opacity="0.75">
<path d="M528.02 637.926L567.935 737.967L761.41 764.74L867.075 724.092L993.801 603.084L962.924 515.583L872.562 357.957L718.957 245.408L524.663 259.175L419.712 329.58L400.081 455.44L443.707 569.888L528.02 637.926Z" fill="#B0B0B0" fill-opacity="0.15"/>
</g>
<g style="mix-blend-mode:overlay" opacity="0.75">
<path d="M280.971 610.723L320.885 710.765L514.361 737.537L620.026 696.89L746.752 575.882L715.875 488.381L625.513 330.754L471.908 218.205L277.614 231.973L172.663 302.377L153.031 428.237L196.658 542.686L280.971 610.723Z" fill="#B0B0B0" fill-opacity="0.15"/>
</g>
<g style="mix-blend-mode:overlay" opacity="0.75">
<path d="M301.558 602.893L341.473 702.934L534.949 729.707L640.614 689.06L767.34 568.052L736.463 480.551L646.101 322.924L492.496 210.375L298.201 224.143L193.25 294.547L173.619 420.407L217.246 534.856L301.558 602.893Z" fill="#B0B0B0" fill-opacity="0.15"/>
</g>
<g style="mix-blend-mode:overlay" opacity="0.75">
<path d="M449.564 736.019L489.479 836.06L682.954 862.832L788.619 822.185L915.345 701.177L884.468 613.676L794.106 456.049L640.501 343.501L446.207 357.268L341.256 427.673L321.625 553.533L365.251 667.981L449.564 736.019Z" fill="#B0B0B0" fill-opacity="0.15"/>
</g>
<g style="mix-blend-mode:overlay" opacity="0.75">
<path d="M411.172 656.061L451.087 756.102L644.562 782.874L750.227 742.227L876.953 621.219L846.076 533.718L755.714 376.091L602.109 263.543L407.815 277.31L302.864 347.715L283.233 473.575L326.859 588.023L411.172 656.061Z" fill="#B0B0B0" fill-opacity="0.15"/>
</g>
<g style="mix-blend-mode:overlay" opacity="0.75">
<path d="M449.564 463.172L489.479 563.213L682.954 589.986L788.619 549.338L915.345 428.33L884.468 340.829L794.106 183.203L640.501 70.6542L446.207 84.4213L341.256 154.826L321.625 280.686L365.251 395.134L449.564 463.172Z" fill="#B0B0B0" fill-opacity="0.15"/>
</g>
<g style="mix-blend-mode:overlay" opacity="0.75">
<path d="M610.368 463.172L650.283 563.213L843.759 589.986L949.423 549.338L1076.15 428.33L1045.27 340.829L954.911 183.203L801.305 70.6542L607.011 84.4213L502.06 154.826L482.429 280.686L526.056 395.134L610.368 463.172Z" fill="#B0B0B0" fill-opacity="0.15"/>
</g>
<g style="mix-blend-mode:overlay" opacity="0.75">
<path d="M449.564 543.13L489.479 643.171L682.954 669.944L788.619 629.296L915.345 508.288L884.468 420.787L794.106 263.161L640.501 150.612L446.207 164.379L341.256 234.784L321.625 360.644L365.251 475.092L449.564 543.13Z" fill="#B0B0B0" fill-opacity="0.15"/>
</g>
<g style="mix-blend-mode:overlay" opacity="0.75">
<path d="M238.684 580.224L278.599 680.265L472.074 707.038L577.739 666.391L704.465 545.383L673.588 457.882L583.226 300.255L429.621 187.706L235.327 201.474L130.376 271.878L110.745 397.738L154.372 512.187L238.684 580.224Z" fill="#B0B0B0" fill-opacity="0.15"/>
</g>
<g style="mix-blend-mode:overlay" opacity="0.75">
<path d="M604.639 558.455L651.338 655.887L805.598 697.745L881.148 668.682L960.386 565.942L922.669 481.072L827.785 325.185L690.947 206.187L542.432 202.343L472.118 259.424L476.7 375.969L528.545 487.257L604.639 558.455Z" fill="#B0B0B0" fill-opacity="0.15"/>
</g>
<g style="mix-blend-mode:overlay" opacity="0.75">
<path d="M697.495 516.372L737.08 616.54L932.461 642.58L1039.59 601.37L1168.62 479.475L1138.08 391.846L1047.93 234.135L893.514 121.9L696.996 136.522L590.363 207.574L569.556 333.886L612.784 448.488L697.495 516.372Z" fill="#B0B0B0" fill-opacity="0.15"/>
</g>
</g>
</svg>
